<?xml version="1.0" encoding="UTF-8"?>
<svg version="1.1" xmlns="http://www.w3.org/2000/svg" width="668" height="184">
<path d="M0 0 C2.3671875 0.21875 2.3671875 0.21875 5 1 C6.2578125 3.03125 6.2578125 3.03125 7.125 5.5 C7.94288809 7.93088229 7.94288809 7.93088229 9 10 C9.99 10.33 10.98 10.66 12 11 C12.19335938 10.37351563 12.38671875 9.74703125 12.5859375 9.1015625 C12.97652344 7.87566406 12.97652344 7.87566406 13.375 6.625 C13.63023438 5.81289062 13.88546875 5.00078125 14.1484375 4.1640625 C15 2 15 2 17 0 C19.4375 -0.0625 19.4375 -0.0625 22 1 C23.88042897 4.50148842 25 7.0080306 25 11 C28.14921339 10.30969412 28.14921339 10.30969412 29.38671875 7.71484375 C29.81597656 6.79832031 30.24523437 5.88179687 30.6875 4.9375 C31.12449219 4.01839844 31.56148437 3.09929687 32.01171875 2.15234375 C32.33785156 1.44207031 32.66398437 0.73179687 33 0 C35.38671875 0.30859375 35.38671875 0.30859375 38 1 C39.8125 4.0625 39.8125 4.0625 41 7 C41.66 7 42.32 7 43 7 C43.66 8.32 44.32 9.64 45 11 C45.268125 10.113125 45.53625 9.22625 45.8125 8.3125 C46.91710819 5.23122452 48.22849144 2.73778595 50 0 C52.25 -0.0625 52.25 -0.0625 55 1 C56.2442911 3.26669812 57.13753977 5.53506698 58.0078125 7.96875 C58.49894531 8.97421875 58.49894531 8.97421875 59 10 C59.99 10.33 60.98 10.66 62 11 C62.19335938 10.37351563 62.38671875 9.74703125 62.5859375 9.1015625 C62.97652344 7.87566406 62.97652344 7.87566406 63.375 6.625 C63.63023438 5.81289062 63.88546875 5.00078125 64.1484375 4.1640625 C65 2 65 2 67 0 C68.984375 0.12890625 68.984375 0.12890625 71 1 C72.265625 2.77734375 72.265625 2.77734375 73.25 4.9375 C73.75273437 6.00291016 73.75273437 6.00291016 74.265625 7.08984375 C75 9 75 9 75 11 C75.99 10.67 76.98 10.34 78 10 C79.1094895 7.72860418 79.90481432 5.41512321 80.7421875 3.03125 C82 1 82 1 84.6328125 0.21875 C85.80457031 0.11046875 85.80457031 0.11046875 87 0 C87.83848804 1.45537568 88.67063934 2.91440373 89.5 4.375 C89.9640625 5.18710938 90.428125 5.99921875 90.90625 6.8359375 C92 9 92 9 92 11 C93.32 11 94.64 11 96 11 C96.33 9.68 96.66 8.36 97 7 C106.17286652 6.36980306 106.17286652 6.36980306 109.625 9 C110.305625 9.99 110.305625 9.99 111 11 C111.66 9.68 112.32 8.36 113 7 C115.64 7 118.28 7 121 7 C121.99 8.98 121.99 8.98 123 11 C123.99 11 124.98 11 126 11 C126.268125 10.113125 126.53625 9.22625 126.8125 8.3125 C127.91710819 5.23122452 129.22849144 2.73778595 131 0 C132.859375 0.25390625 132.859375 0.25390625 135 1 C136.265625 2.77734375 136.265625 2.77734375 137.25 4.9375 C137.58515625 5.64777344 137.9203125 6.35804688 138.265625 7.08984375 C139 9 139 9 139 11 C142.12203968 10.35034414 142.12203968 10.35034414 143.02734375 7.96875 C143.63380357 6.32376027 144.23797376 4.6779246 144.83984375 3.03125 C146 1 146 1 148.00390625 0.15625 C150 0 150 0 152 1 C155 7.23076923 155 7.23076923 155 11 C158.10118992 10.32365299 158.10118992 10.32365299 159.24609375 7.96875 C160.0398733 6.32393466 160.83154389 4.67809987 161.62109375 3.03125 C163 1 163 1 165.16015625 0.21875 C166.07087891 0.11046875 166.07087891 0.11046875 167 0 C169.96052484 3.36423277 170.92289822 6.69159287 172 11 C173.39025391 10.98259766 173.39025391 10.98259766 174.80859375 10.96484375 C176.00613281 10.95582031 177.20367187 10.94679687 178.4375 10.9375 C179.63246094 10.92589844 180.82742187 10.91429687 182.05859375 10.90234375 C185 11 185 11 186 12 C186.08685603 13.56172745 186.10702219 15.12729344 186.09765625 16.69140625 C186.09443359 17.63564453 186.09121094 18.57988281 186.08789062 19.55273438 C186.07951172 20.54595703 186.07113281 21.53917969 186.0625 22.5625 C186.05798828 23.55958984 186.05347656 24.55667969 186.04882812 25.58398438 C186.03700007 28.05604849 186.02051849 30.52799518 186 33 C161.24434931 33.02332606 136.48870026 33.04097773 111.73304081 33.05181217 C100.23942257 33.05697575 88.74581114 33.06401963 77.25219727 33.07543945 C67.23824813 33.08538439 57.22430392 33.09185297 47.21034998 33.09408849 C41.90454557 33.09539593 36.59875529 33.09848381 31.2929554 33.10573006 C26.30509229 33.11248728 21.31724919 33.11461757 16.32938194 33.11310768 C14.49309811 33.11338414 12.65681365 33.11539102 10.82053375 33.11920547 C8.32479384 33.12413808 5.82913076 33.1229999 3.33338928 33.12025452 C2.59702195 33.12316736 1.86065461 33.1260802 1.10197312 33.12908131 C-3.88587879 33.11412121 -3.88587879 33.11412121 -5 32 C-6.05519271 21.19829942 -6.94679746 8.98121671 0 0 Z " fill="#020202" transform="translate(38,132)"/>
<path d="M0 0 C1.97811357 -0.01523403 3.9561991 -0.03460462 5.93423462 -0.05786133 C10.05915297 -0.08880541 14.17918309 -0.06529809 18.30371094 -0.00292969 C22.50261717 0.05653683 26.69024365 0.04274477 30.88867188 -0.04394531 C71.4457039 -0.87883893 71.4457039 -0.87883893 81.5 8.28515625 C91.87504775 20.27336093 89.16311881 40.16620489 88.56872559 54.88037109 C88.44487007 58.40082048 88.39772013 61.92046527 88.35376358 65.44268703 C88.29994047 69.64856346 88.21372882 73.85350192 88.1171875 78.05859375 C88.09054394 79.25766263 88.09054394 79.25766263 88.06336212 80.48095512 C88.00530654 82.72846559 87.92538656 84.97396408 87.83691406 87.22045898 C87.79230042 88.49710922 87.74768677 89.77375946 87.70172119 91.08909607 C87.46651764 92.56093102 87.46651764 92.56093102 87.2265625 94.0625 C83.51091412 96.53959892 80.5891415 96.39424834 76.2890625 96.375 C75.57298828 96.39111328 74.85691406 96.40722656 74.11914062 96.42382812 C71.07758127 96.42664699 68.59305138 96.21965043 65.78515625 95.015625 C63.46724516 92.11097451 63.4669029 89.07583638 63.2265625 85.5 C62.03657795 73.62674638 58.62609503 64.97928937 49.2265625 57.0625 C38.90553387 50.38906382 28.60828743 47.54183579 16.3828125 49.5234375 C5.59581376 52.09898495 -2.3226877 58.09581151 -8.7734375 67.0625 C-12.57098678 73.51946065 -13.43125811 80.37207781 -14.09130859 87.70532227 C-14.57827981 92.86734231 -14.57827981 92.86734231 -16.7734375 95.0625 C-19.72970583 95.55698444 -22.71792889 95.47903729 -25.7109375 95.5 C-26.9474707 95.54930664 -26.9474707 95.54930664 -28.20898438 95.59960938 C-29.39911133 95.61024414 -29.39911133 95.61024414 -30.61328125 95.62109375 C-31.33894287 95.63454834 -32.06460449 95.64800293 -32.81225586 95.66186523 C-34.7734375 95.0625 -34.7734375 95.0625 -36.3727417 92.93896484 C-38.03522175 89.52490062 -38.14780551 87.22772049 -38.14575195 83.43969727 C-38.14940262 82.79511566 -38.15305328 82.15053406 -38.15681458 81.48641968 C-38.16488498 79.36697598 -38.15133872 77.24830548 -38.13671875 75.12890625 C-38.13619965 73.64826966 -38.13671927 72.16763237 -38.13822937 70.68699646 C-38.1381398 67.58769404 -38.12774292 64.48865255 -38.10961914 61.3894043 C-38.08695231 57.42728237 -38.08638592 53.46554205 -38.09313679 49.50337315 C-38.09648738 46.44663637 -38.08982588 43.38998571 -38.08000755 40.3332653 C-38.07617255 38.87290842 -38.07500025 37.41254192 -38.0765934 35.95218086 C-38.07696656 33.90616929 -38.06427411 31.8606365 -38.0480957 29.81469727 C-38.04348831 28.65285416 -38.03888092 27.49101105 -38.03413391 26.29396057 C-37.28585705 17.01869986 -31.92658769 11.40005506 -25.32635498 5.32861328 C-17.82863239 -0.67932198 -9.18979161 -0.13863987 0 0 Z M-24.13323975 19.98388672 C-27.1971067 25.73469419 -27.00264817 31.21565213 -26.75 37.6015625 C-26.73130504 38.97727266 -26.71709108 40.35305025 -26.7071228 41.72885132 C-26.66927453 45.31782944 -26.57137311 48.90263894 -26.46008301 52.48999023 C-26.35703698 56.16332611 -26.31195731 59.83734845 -26.26171875 63.51171875 C-26.1550669 70.69719559 -25.9848418 77.87925977 -25.7734375 85.0625 C-25.4434375 85.0625 -25.1134375 85.0625 -24.7734375 85.0625 C-24.61488281 84.09570312 -24.45632812 83.12890625 -24.29296875 82.1328125 C-21.61309462 66.76411044 -15.715899 55.80498705 -2.9609375 46.1875 C7.1534736 39.48670264 19.25446618 37.06129995 31.2265625 38.0625 C45.92672914 41.12139318 58.65306329 48.1745149 67.078125 60.84765625 C71.30334109 68.58000984 72.8834561 76.43834309 74.2265625 85.0625 C75.2165625 84.7325 76.2065625 84.4025 77.2265625 84.0625 C76.5665625 84.0625 75.9065625 84.0625 75.2265625 84.0625 C75.46564079 83.2435173 75.46564079 83.2435173 75.70954895 82.4079895 C76.29722685 79.74192331 76.42043567 77.26436949 76.4987793 74.53466797 C76.53098068 73.42606415 76.56318207 72.31746033 76.59635925 71.17526245 C76.70763108 66.10276375 76.78939528 61.03036763 76.85131836 55.95703125 C76.88693817 53.28587008 76.9542867 50.62098382 77.03588867 47.95019531 C77.15187675 44.0883901 77.20163243 40.23046517 77.23828125 36.3671875 C77.31099495 34.59322098 77.31099495 34.59322098 77.38517761 32.78341675 C77.37123966 26.42708561 76.41682926 22.28607491 72.32348633 17.31396484 C65.02102066 10.95512631 56.84735607 11.61252224 47.6640625 11.734375 C45.86383763 11.72762526 44.06362169 11.71790887 42.26342773 11.7053833 C38.50383097 11.69070102 34.74662201 11.71185798 30.98730469 11.75878906 C26.19099392 11.81577896 21.40027761 11.78293871 16.60417175 11.72306442 C12.89065115 11.68675805 9.17843631 11.69850375 5.46487427 11.72434235 C3.69800131 11.73096704 1.93100598 11.72298948 0.16427612 11.69954681 C-9.74030363 11.59693393 -17.37671348 11.77368304 -24.13323975 19.98388672 Z M76.2265625 81.0625 C77.2265625 83.0625 77.2265625 83.0625 77.2265625 83.0625 Z " fill="#060606" transform="translate(123.7734375,17.9375)"/>
<path d="M0 0 C2.625 0.5 2.625 0.5 4.625 3.4375 C5.285 4.448125 5.945 5.45875 6.625 6.5 C9.15173046 7.64091482 9.15173046 7.64091482 11.625 7.5 C12.285 6.84 12.945 6.18 13.625 5.5 C16.75 5.875 16.75 5.875 19.625 6.5 C20.50367729 10.23437848 20.71412219 13.66774573 20.625 17.5 C21.90375 17.62375 23.1825 17.7475 24.5 17.875 C28.375 18.25 28.375 18.25 30.625 20.5 C31.18838028 25.79577465 31.18838028 25.79577465 29.125 28.375 C28.63 28.74625 28.135 29.1175 27.625 29.5 C28.62436512 31.72935295 29.36671995 33.28145534 31.25 34.875 C32.625 36.5 32.625 36.5 32.9375 39.5625 C32.625 42.5 32.625 42.5 30.625 44.5 C27 44.625 27 44.625 23.625 44.5 C23.769375 45.180625 23.91375 45.86125 24.0625 46.5625 C24.248125 47.531875 24.43375 48.50125 24.625 49.5 C24.8725 50.69625 25.12 51.8925 25.375 53.125 C25.625 56.5 25.625 56.5 24.5 58.5 C21.85798499 59.90907467 20.45085413 59.32707926 17.625 58.5 C16.305 58.17 14.985 57.84 13.625 57.5 C12.965 60.14 12.305 62.78 11.625 65.5 C8.16 65.995 8.16 65.995 4.625 66.5 C3.635 64.85 2.645 63.2 1.625 61.5 C-1.26075819 61.89803561 -2.19689513 62.29009069 -4.125 64.5625 C-4.5375 65.201875 -4.95 65.84125 -5.375 66.5 C-8.84 66.005 -8.84 66.005 -12.375 65.5 C-13.035 62.86 -13.695 60.22 -14.375 57.5 C-15.1175 57.850625 -15.86 58.20125 -16.625 58.5625 C-19.56389228 59.5643951 -20.5747996 59.71342017 -23.375 58.5 C-25.125 56.9375 -25.125 56.9375 -26.375 55.5 C-25.88 54.13875 -25.88 54.13875 -25.375 52.75 C-24.17894277 49.42954193 -24.17894277 49.42954193 -24.375 45.5 C-25.48875 45.231875 -26.6025 44.96375 -27.75 44.6875 C-31.375 43.5 -31.375 43.5 -33.375 40.5 C-33.19428906 37.60862491 -32.6029657 36.70590451 -30.4375 34.75 C-28.375 33.5 -28.375 33.5 -26.375 33.5 C-27.59698825 29.87811487 -27.59698825 29.87811487 -30.0625 27.0625 C-31.375 25.5 -31.375 25.5 -31.125 22.375 C-30.375 19.5 -30.375 19.5 -29.375 18.5 C-27.86030552 18.26807135 -26.33745438 18.08784762 -24.8125 17.9375 C-23.57306641 17.81181641 -23.57306641 17.81181641 -22.30859375 17.68359375 C-21.67050781 17.62300781 -21.03242187 17.56242187 -20.375 17.5 C-20.39820312 16.80132812 -20.42140625 16.10265625 -20.4453125 15.3828125 C-20.46335937 14.47273438 -20.48140625 13.56265625 -20.5 12.625 C-20.52320312 11.72007813 -20.54640625 10.81515625 -20.5703125 9.8828125 C-20.375 7.5 -20.375 7.5 -18.375 5.5 C-12.92045455 5.95454545 -12.92045455 5.95454545 -10.375 8.5 C-7.79145782 8.66687448 -7.79145782 8.66687448 -5.375 8.5 C-5.25125 7.55125 -5.1275 6.6025 -5 5.625 C-4.26499868 1.94999339 -3.72496341 0.78420282 0 0 Z M-8.375 26.5 C-10.43524254 29.29129635 -11.42525637 31.24140574 -11.28515625 34.75 C-10.62343964 38.58165426 -9.76966491 41.00965875 -7.3125 44.0625 C-3.244982 46.05298753 0.17888837 46.29884764 4.625 45.5 C7.74568856 43.70726402 9.17465052 42.25740595 11 39.1875 C11.84594728 35.54992671 11.59185978 33.10960985 10.625 29.5 C8.43508403 26.91702219 6.65668312 25.01584156 3.625 23.5 C-1.33634453 23.1255589 -4.48822241 23.26101867 -8.375 26.5 Z " fill="#030303" transform="translate(148.375,71.5)"/>
<path d="M0 0 C3.96 0 7.92 0 12 0 C12.2673999 0.86802246 12.5347998 1.73604492 12.81030273 2.63037109 C13.80224207 5.84743669 14.79573222 9.06401472 15.7902832 12.28027344 C16.22059515 13.6729843 16.65028613 15.06588718 17.0793457 16.45898438 C17.69579939 18.46014271 18.31447529 20.46060223 18.93359375 22.4609375 C19.4913147 24.26763916 19.4913147 24.26763916 20.06030273 26.11083984 C20.88882011 28.90150475 20.88882011 28.90150475 22 31 C22.11069824 30.34515625 22.22139648 29.6903125 22.33544922 29.015625 C22.84543101 26.00986343 23.36018096 23.00493668 23.875 20 C24.04902344 18.97003906 24.22304688 17.94007812 24.40234375 16.87890625 C25.38287594 11.17729313 26.50837319 5.590241 28 0 C31.96 0 35.92 0 40 0 C37.45328124 13.34047149 34.88796821 26.67723428 32.25 40 C32.03964111 41.07306396 31.82928223 42.14612793 31.61254883 43.25170898 C31.31707153 44.73586304 31.31707153 44.73586304 31.015625 46.25 C30.84321289 47.12140625 30.67080078 47.9928125 30.49316406 48.890625 C30 51 30 51 29 53 C25.04 53 21.08 53 17 53 C12.545 38.15 12.545 38.15 8 23 C7.67 23 7.34 23 7 23 C6.85377197 23.80219971 6.70754395 24.60439941 6.55688477 25.4309082 C5.8943326 29.05851928 5.22845674 32.68551246 4.5625 36.3125 C4.33240234 37.57513672 4.10230469 38.83777344 3.86523438 40.13867188 C3.64287109 41.34716797 3.42050781 42.55566406 3.19140625 43.80078125 C2.98717041 44.91622314 2.78293457 46.03166504 2.57250977 47.1809082 C2 50 2 50 1 53 C-2.96 53 -6.92 53 -11 53 C-8.45328124 39.65952851 -5.88796821 26.32276572 -3.25 13 C-3.03964111 11.92693604 -2.82928223 10.85387207 -2.61254883 9.74829102 C-2.41556396 8.75885498 -2.2185791 7.76941895 -2.015625 6.75 C-1.84321289 5.87859375 -1.67080078 5.0071875 -1.49316406 4.109375 C-1 2 -1 2 0 0 Z " fill="#000000" transform="translate(309,65)"/>
<path d="M0 0 C3.66651247 -0.08796382 7.33274918 -0.14071247 11 -0.1875 C12.54494141 -0.22520508 12.54494141 -0.22520508 14.12109375 -0.26367188 C20.49460618 -0.32456531 25.23395364 0.21296726 31 3 C34.45120178 6.53969413 35.82810937 9.24671557 36.3125 14.1875 C35.77657007 20.72584509 33.26693039 25.15956072 28.375 29.5 C25.32978723 32 25.32978723 32 23 32 C25.64 38.93 28.28 45.86 31 53 C26.71 53 22.42 53 18 53 C16.99394407 50.39802798 15.99497475 47.79370638 15 45.1875 C14.71382812 44.44951172 14.42765625 43.71152344 14.1328125 42.95117188 C13.86210938 42.23896484 13.59140625 41.52675781 13.3125 40.79296875 C13.06113281 40.1383667 12.80976562 39.48376465 12.55078125 38.80932617 C12 37 12 37 12 34 C10.02 34 8.04 34 6 34 C5.87882813 34.86882812 5.75765625 35.73765625 5.6328125 36.6328125 C5.46523438 37.78523438 5.29765625 38.93765625 5.125 40.125 C4.88136719 41.83042969 4.88136719 41.83042969 4.6328125 43.5703125 C4.02568583 46.86078915 3.13654367 49.85779103 2 53 C-1.96 53 -5.92 53 -10 53 C-8.37794513 41.63707877 -6.15597769 30.43318063 -3.875 19.1875 C-3.49842674 17.31971611 -3.12212269 15.45187792 -2.74609375 13.58398438 C-1.83382782 9.05535838 -0.91793504 4.52748014 0 0 Z M11 10 C9.23384882 14.70973649 8.51405169 19.03083364 8 24 C14.769357 24.51036035 14.769357 24.51036035 21.0625 22.375 C23.44906824 19.44952926 24.0786979 17.77749938 24 14 C22.75609295 11.42044581 22.75609295 11.42044581 20 10 C16.96937574 9.67714999 14.03485057 9.76654996 11 10 Z " fill="#000000" transform="translate(588,65)"/>
<path d="M0 0 C4.43430745 3.57972999 7.84073357 8.83112586 8.82421875 14.47265625 C9.69636259 24.97192634 7.70304593 33.80480834 1.56640625 42.4296875 C-2.83057472 47.5857885 -8.5749662 51.96056553 -15.421875 52.72265625 C-22.28347346 53.05685891 -27.55206401 51.75520927 -32.7109375 47.08203125 C-38.32192801 40.86577354 -38.6364261 34.07190641 -38.4765625 26.0703125 C-37.60727235 15.67269913 -32.99800853 8.27294738 -25.17578125 1.47265625 C-17.55808261 -3.68127622 -8.12267241 -4.5968065 0 0 Z M-20.17578125 11.47265625 C-24.76226669 18.31351588 -26.81568552 24.16989839 -26.17578125 32.47265625 C-24.89552187 37.78540106 -24.89552187 37.78540106 -21.17578125 41.47265625 C-17.73042588 42.06896776 -15.35728592 42.155411 -12.26953125 40.37109375 C-8.20323468 37.14907062 -5.17383138 33.66971011 -4.17578125 28.47265625 C-3.25282198 18.42240909 -3.25282198 18.42240909 -7.17578125 9.47265625 C-8.32492094 8.1065861 -8.32492094 8.1065861 -11.42578125 8.22265625 C-15.57218607 8.49908324 -17.0603674 8.76716528 -20.17578125 11.47265625 Z " fill="#000000" transform="translate(432.17578125,66.52734375)"/>
<path d="M0 0 C4.5693929 3.35710498 4.5693929 3.35710498 6.0625 6.25 C4.7206656 10.27550319 2.6397427 11.13285636 -0.9375 13.25 C-1.5975 13.25 -2.2575 13.25 -2.9375 13.25 C-3.5253125 12.5075 -3.5253125 12.5075 -4.125 11.75 C-6.97311486 9.39293943 -9.35051145 9.94601792 -12.9375 10.25 C-17.12634293 11.09921885 -17.12634293 11.09921885 -20.125 13.875 C-20.393125 14.65875 -20.66125 15.4425 -20.9375 16.25 C-21.47375 17.405 -22.01 18.56 -22.5625 19.75 C-24.68856167 25.49144573 -25.29023057 32.7766132 -23.04296875 38.546875 C-22.03727695 40.41126023 -22.03727695 40.41126023 -19.9375 41.25 C-18.23047265 41.31996014 -16.52081997 41.33440154 -14.8125 41.3125 C-13.90242188 41.30347656 -12.99234375 41.29445312 -12.0546875 41.28515625 C-11.35601562 41.27355469 -10.65734375 41.26195312 -9.9375 41.25 C-9.2775 38.28 -8.6175 35.31 -7.9375 32.25 C-10.5775 32.25 -13.2175 32.25 -15.9375 32.25 C-15.79700482 30.77031676 -15.64995174 29.29125484 -15.5 27.8125 C-15.41878906 26.98878906 -15.33757812 26.16507813 -15.25390625 25.31640625 C-14.9375 23.25 -14.9375 23.25 -13.9375 22.25 C-12.52179877 22.16348389 -11.101905 22.14295096 -9.68359375 22.15234375 C-8.40258789 22.15717773 -8.40258789 22.15717773 -7.09570312 22.16210938 C-5.74895508 22.17467773 -5.74895508 22.17467773 -4.375 22.1875 C-3.47330078 22.19201172 -2.57160156 22.19652344 -1.64257812 22.20117188 C0.59251314 22.21299775 2.82747437 22.2294778 5.0625 22.25 C4.4581175 26.59444365 3.77186252 30.92153319 3.0625 35.25 C2.89105469 36.44367188 2.71960938 37.63734375 2.54296875 38.8671875 C1.04891608 47.36882915 1.04891608 47.36882915 -1.8046875 49.91796875 C-3.84533246 50.95324101 -5.73033284 51.66260874 -7.9375 52.25 C-9.4225 52.745 -9.4225 52.745 -10.9375 53.25 C-17.64077121 53.80504793 -23.06878341 53.65385562 -28.9375 50.25 C-34.19163376 45.71233902 -37.39801322 41.05231679 -38.17578125 34.12890625 C-38.49389984 24.20025757 -36.18420782 15.28767425 -29.625 7.6875 C-22.01884187 -0.01873916 -10.57289762 -5.73635934 0 0 Z " fill="#000000" transform="translate(483.9375,65.75)"/>
<path d="M0 0 C1.22976563 0.11601563 2.45953125 0.23203125 3.7265625 0.3515625 C4.97179687 0.44179687 6.21703125 0.53203125 7.5 0.625 C8.44101562 0.74101563 9.38203125 0.85703125 10.3515625 0.9765625 C11.83145215 12.98769095 13.30186797 25.00011908 14.5390625 37.0390625 C14.62269043 37.82764648 14.70631836 38.61623047 14.79248047 39.42871094 C15.2799235 44.30314128 15.42385055 49.07765701 15.3515625 53.9765625 C11.0615625 53.9765625 6.7715625 53.9765625 2.3515625 53.9765625 C2.3515625 49.6865625 2.3515625 45.3965625 2.3515625 40.9765625 C-2.5984375 40.9765625 -7.5484375 40.9765625 -12.6484375 40.9765625 C-13.3084375 42.9565625 -13.9684375 44.9365625 -14.6484375 46.9765625 C-15.59731568 49.33569998 -16.62404356 51.64839445 -17.6484375 53.9765625 C-22.2684375 53.9765625 -26.8884375 53.9765625 -31.6484375 53.9765625 C-27.00740158 44.56477226 -22.25711404 35.20953056 -17.44342041 25.88491821 C-16.5433246 24.14011297 -15.64638201 22.39368222 -14.74951172 20.6472168 C-13.07408845 17.40984232 -11.36268157 14.19349699 -9.6484375 10.9765625 C-9.15166504 9.97931152 -8.65489258 8.98206055 -8.14306641 7.95458984 C-4.57361388 1.22420072 -4.57361388 1.22420072 0 0 Z M0.3515625 11.9765625 C-0.98778466 14.93220958 -2.31887997 17.8915003 -3.6484375 20.8515625 C-4.03 21.69332031 -4.4115625 22.53507812 -4.8046875 23.40234375 C-5.165625 24.20800781 -5.5265625 25.01367188 -5.8984375 25.84375 C-6.23359375 26.58737793 -6.56875 27.33100586 -6.9140625 28.09716797 C-7.76975491 29.95073861 -7.76975491 29.95073861 -7.6484375 31.9765625 C-4.6784375 31.9765625 -1.7084375 31.9765625 1.3515625 31.9765625 C1.3515625 25.3765625 1.3515625 18.7765625 1.3515625 11.9765625 C1.0215625 11.9765625 0.6915625 11.9765625 0.3515625 11.9765625 Z " fill="#000000" transform="translate(558.6484375,64.0234375)"/>
<path d="M0 0 C10.56 0 21.12 0 32 0 C31.34 3.3 30.68 6.6 30 10 C23.4 10 16.8 10 10 10 C9.67 12.97 9.34 15.94 9 19 C14.28 19.33 19.56 19.66 25 20 C24.34 23.63 23.68 27.26 23 31 C17.39 31 11.78 31 6 31 C5.34 34.96 4.68 38.92 4 43 C10.6 43 17.2 43 24 43 C23 52 23 52 22 53 C19.55169574 53.08843793 17.13179401 53.11528752 14.68359375 53.09765625 C13.95253922 53.0962413 13.22148468 53.09482635 12.46827698 53.09336853 C10.12464368 53.08775408 7.78110461 53.07519922 5.4375 53.0625 C3.85221492 53.05748686 2.26692834 53.05292363 0.68164062 53.04882812 C-3.2122761 53.03777997 -7.10612205 53.02050572 -11 53 C-9.59824542 45.77263853 -8.19195775 38.54616994 -6.7824707 31.3203125 C-6.3032278 28.86055645 -5.82503436 26.40059569 -5.34790039 23.94042969 C-4.66306023 20.41026712 -3.97448539 16.88085089 -3.28515625 13.3515625 C-3.07157974 12.24632233 -2.85800323 11.14108215 -2.63795471 10.00234985 C-2.43782272 8.98144257 -2.23769073 7.96053528 -2.03149414 6.90869141 C-1.85606583 6.00712311 -1.68063751 5.10555481 -1.49989319 4.17666626 C-1 2 -1 2 0 0 Z " fill="#000000" transform="translate(360,65)"/>
<path d="M0 0 C10.56 0 21.12 0 32 0 C31 9 31 9 30 10 C28.5112814 10.08669432 27.018555 10.10703494 25.52734375 10.09765625 C24.62822266 10.09443359 23.72910156 10.09121094 22.80273438 10.08789062 C21.85720703 10.07951172 20.91167969 10.07113281 19.9375 10.0625 C18.98810547 10.05798828 18.03871094 10.05347656 17.06054688 10.04882812 C14.70700469 10.03700128 12.35349468 10.01906521 10 10 C9.67 13.3 9.34 16.6 9 20 C14.28 20 19.56 20 25 20 C24.125 28.75 24.125 28.75 23 31 C17.39 31 11.78 31 6 31 C5.34 34.96 4.68 38.92 4 43 C10.6 43 17.2 43 24 43 C23.505 47.95 23.505 47.95 23 53 C12.11 53 1.22 53 -10 53 C-9.32946767 46.29467669 -8.53059192 39.9369875 -7.1875 33.37890625 C-7.01371826 32.51232895 -6.83993652 31.64575165 -6.66088867 30.75291443 C-6.29670803 28.9416697 -5.93023108 27.13088525 -5.56152344 25.32055664 C-4.99666608 22.54612464 -4.43916662 19.77028903 -3.8828125 16.99414062 C-3.52646556 15.22647699 -3.16970952 13.45889577 -2.8125 11.69140625 C-2.64580811 10.86330948 -2.47911621 10.03521271 -2.30737305 9.18202209 C-1.66897626 6.05510331 -1.01026838 3.03080513 0 0 Z " fill="#000000" transform="translate(503,65)"/>
<path d="M0 0 C62.37 0 124.74 0 189 0 C189 0.33 189 0.66 189 1 C126.63 1 64.26 1 0 1 C0 0.67 0 0.34 0 0 Z " fill="#020202" transform="translate(34,166)"/>
<path d="M0 0 C29.37 0 58.74 0 89 0 C89 0.33 89 0.66 89 1 C59.63 1 30.26 1 0 1 C0 0.67 0 0.34 0 0 Z " fill="#12110F" transform="translate(104,18)"/>
<path d="M0 0 C27.06 0 54.12 0 82 0 C82 0.33 82 0.66 82 1 C54.94 1 27.88 1 0 1 C0 0.67 0 0.34 0 0 Z " fill="#010101" transform="translate(108,32)"/>
<path d="M0 0 C0.33 0 0.66 0 1 0 C1 24.75 1 49.5 1 75 C0.67 75 0.34 75 0 75 C0 50.25 0 25.5 0 0 Z " fill="#000000" transform="translate(212,37)"/>
<path d="M0 0 C0.33 0 0.66 0 1 0 C1 14.85 1 29.7 1 45 C0.67 45 0.34 45 0 45 C0 30.15 0 15.3 0 0 Z " fill="#010100" transform="translate(198,41)"/>
<path d="M0 0 C0.33 0 0.66 0 1 0 C1 11.22 1 22.44 1 34 C0.67 34 0.34 34 0 34 C0 22.78 0 11.56 0 0 Z " fill="#2D2D2D" transform="translate(84,52)"/>
<path d="M0 0 C10.56 0 21.12 0 32 0 C32 0.33 32 0.66 32 1 C21.44 1 10.88 1 0 1 C0 0.67 0 0.34 0 0 Z " fill="#000000" transform="translate(493,119)"/>
<path d="M0 0 C10.56 0 21.12 0 32 0 C32 0.33 32 0.66 32 1 C21.44 1 10.88 1 0 1 C0 0.67 0 0.34 0 0 Z " fill="#000000" transform="translate(350,119)"/>
<path d="M0 0 C10.56 0 21.12 0 32 0 C32 0.33 32 0.66 32 1 C21.44 1 10.88 1 0 1 C0 0.67 0 0.34 0 0 Z " fill="#000000" transform="translate(503,63)"/>
<path d="M0 0 C10.23 0 20.46 0 31 0 C31 0.33 31 0.66 31 1 C20.77 1 10.54 1 0 1 C0 0.67 0 0.34 0 0 Z " fill="#000000" transform="translate(360,63)"/>
<path d="M0 0 C0.33 0 0.66 0 1 0 C1 6.93 1 13.86 1 21 C0.67 21 0.34 21 0 21 C0 14.07 0 7.14 0 0 Z " fill="#000000" transform="translate(31,143)"/>
<path d="M0 0 C6.93 0 13.86 0 21 0 C21 0.33 21 0.66 21 1 C14.07 1 7.14 1 0 1 C0 0.67 0 0.34 0 0 Z " fill="#000000" transform="translate(589,63)"/>
<path d="M0 0 C0.33 0 0.66 0 1 0 C1 6.6 1 13.2 1 20 C0.67 20 0.34 20 0 20 C0 13.4 0 6.8 0 0 Z " fill="#040405" transform="translate(225,144)"/>
<path d="M0 0 C4.29 0 8.58 0 13 0 C13 2.64 13 5.28 13 8 C12.67 8 12.34 8 12 8 C12 5.69 12 3.38 12 1 C8.04 1 4.08 1 0 1 C0 0.67 0 0.34 0 0 Z " fill="#000000" transform="translate(547,106)"/>
<path d="M0 0 C6.27 0.33 12.54 0.66 19 1 C19 1.33 19 1.66 19 2 C12.73 2 6.46 2 0 2 C0 1.34 0 0.68 0 0 Z " fill="#000000" transform="translate(508,105)"/>
<path d="M0 0 C0.33 0.66 0.66 1.32 1 2 C6.61 2 12.22 2 18 2 C18 2.33 18 2.66 18 3 C12.06 3 6.12 3 0 3 C0 2.01 0 1.02 0 0 Z " fill="#000000" transform="translate(365,104)"/>
<path d="M0 0 C5.61 0 11.22 0 17 0 C17 0.33 17 0.66 17 1 C11.39 1 5.78 1 0 1 C0 0.67 0 0.34 0 0 Z " fill="#000000" transform="translate(89,114)"/>
<path d="M0 0 C5.28 0 10.56 0 16 0 C16 0.33 16 0.66 16 1 C8.08 1.495 8.08 1.495 0 2 C0 1.34 0 0.68 0 0 Z " fill="#000000" transform="translate(510,97)"/>
<path d="M0 0 C5.28 0 10.56 0 16 0 C16 0.33 16 0.66 16 1 C10.72 1 5.44 1 0 1 C0 0.67 0 0.34 0 0 Z " fill="#191A18" transform="translate(192,115)"/>
<path d="M0 0 C5.28 0 10.56 0 16 0 C16 0.33 16 0.66 16 1 C10.72 1 5.44 1 0 1 C0 0.67 0 0.34 0 0 Z " fill="#000000" transform="translate(367,97)"/>
<path d="M0 0 C0.33 0 0.66 0 1 0 C1 4.62 1 9.24 1 14 C0.67 14 0.34 14 0 14 C-0.19532961 12.2300132 -0.38098882 10.45895721 -0.5625 8.6875 C-0.66691406 7.70136719 -0.77132812 6.71523437 -0.87890625 5.69921875 C-1 3 -1 3 0 0 Z " fill="#000000" transform="translate(558,81)"/>
<path d="M0 0 C4.62 0 9.24 0 14 0 C14 0.33 14 0.66 14 1 C9.38 1 4.76 1 0 1 C0 0.67 0 0.34 0 0 Z " fill="#000000" transform="translate(555,63)"/>
<path d="M0 0 C0.33 0 0.66 0 1 0 C1 4.29 1 8.58 1 13 C0.67 13 0.34 13 0 13 C0 8.71 0 4.42 0 0 Z " fill="#000000" transform="translate(392,90)"/>
<path d="M0 0 C0.33 0 0.66 0 1 0 C1 1.65 1 3.3 1 5 C3.31 5 5.62 5 8 5 C8 5.33 8 5.66 8 6 C5.36 6 2.72 6 0 6 C0 4.02 0 2.04 0 0 Z " fill="#050505" transform="translate(169,83)"/>
<path d="M0 0 C2.97 0 5.94 0 9 0 C9 0.33 9 0.66 9 1 C6.36 1 3.72 1 1 1 C0.67 2.32 0.34 3.64 0 5 C0 3.35 0 1.7 0 0 Z " fill="#000000" transform="translate(599,76)"/>
<path d="M0 0 C3.96 0 7.92 0 12 0 C12 0.33 12 0.66 12 1 C8.04 1 4.08 1 0 1 C0 0.67 0 0.34 0 0 Z " fill="#000000" transform="translate(606,119)"/>
<path d="M0 0 C3.96 0 7.92 0 12 0 C12 0.33 12 0.66 12 1 C8.04 1 4.08 1 0 1 C0 0.67 0 0.34 0 0 Z " fill="#000000" transform="translate(578,119)"/>
<path d="M0 0 C3.96 0 7.92 0 12 0 C12 0.33 12 0.66 12 1 C8.04 1 4.08 1 0 1 C0 0.67 0 0.34 0 0 Z " fill="#000000" transform="translate(562,119)"/>
<path d="M0 0 C3.96 0 7.92 0 12 0 C12 0.33 12 0.66 12 1 C8.04 1 4.08 1 0 1 C0 0.67 0 0.34 0 0 Z " fill="#000000" transform="translate(528,119)"/>
<path d="M0 0 C0.33 0 0.66 0 1 0 C1 3.96 1 7.92 1 12 C0.67 12 0.34 12 0 12 C0 8.04 0 4.08 0 0 Z " fill="#000000" transform="translate(460,90)"/>
<path d="M0 0 C3.63 0 7.26 0 11 0 C11 0.33 11 0.66 11 1 C7.37 1 3.74 1 0 1 C0 0.67 0 0.34 0 0 Z " fill="#0D0D0D" transform="translate(211,141)"/>
<path d="M0 0 C3.63 0 7.26 0 11 0 C11 0.33 11 0.66 11 1 C7.37 1 3.74 1 0 1 C0 0.67 0 0.34 0 0 Z " fill="#000000" transform="translate(327,119)"/>
<path d="M0 0 C3.63 0 7.26 0 11 0 C11 0.33 11 0.66 11 1 C7.37 1 3.74 1 0 1 C0 0.67 0 0.34 0 0 Z " fill="#000000" transform="translate(299,119)"/>
<path d="M0 0 C0.33 0 0.66 0 1 0 C1 3.63 1 7.26 1 11 C0.67 11 0.34 11 0 11 C0 7.37 0 3.74 0 0 Z " fill="#030303" transform="translate(186,100)"/>
<path d="M0 0 C3.63 0 7.26 0 11 0 C11 0.33 11 0.66 11 1 C7.37 1 3.74 1 0 1 C0 0.67 0 0.34 0 0 Z " fill="#000000" transform="translate(143,67)"/>
<path d="M0 0 C3.63 0 7.26 0 11 0 C11 0.33 11 0.66 11 1 C7.37 1 3.74 1 0 1 C0 0.67 0 0.34 0 0 Z " fill="#000000" transform="translate(337,63)"/>
<path d="M0 0 C3.63 0 7.26 0 11 0 C11 0.33 11 0.66 11 1 C7.37 1 3.74 1 0 1 C0 0.67 0 0.34 0 0 Z " fill="#000000" transform="translate(309,63)"/>
<path d="M0 0 C3.3 0 6.6 0 10 0 C10 0.33 10 0.66 10 1 C6.7 1 3.4 1 0 1 C0 0.67 0 0.34 0 0 Z " fill="#000000" transform="translate(462,120)"/>
<path d="M0 0 C0.33 0 0.66 0 1 0 C1 3.3 1 6.6 1 10 C0.67 10 0.34 10 0 10 C0 6.7 0 3.4 0 0 Z " fill="#020202" transform="translate(110,101)"/>
<path d="M0 0 C2.97 0 5.94 0 9 0 C9 0.33 9 0.66 9 1 C6.03 1 3.06 1 0 1 C0 0.67 0 0.34 0 0 Z " fill="#000000" transform="translate(409,120)"/>
<path d="M0 0 C2.97 0 5.94 0 9 0 C9 0.33 9 0.66 9 1 C6.03 1 3.06 1 0 1 C0 0.67 0 0.34 0 0 Z " fill="#0B0B0B" transform="translate(144,115)"/>
<path d="M0 0 C2 3.75 2 3.75 2 6 C1.34 6 0.68 6 0 6 C0 4.02 0 2.04 0 0 Z " fill="#000000" transform="translate(575,112)"/>
<path d="M0 0 C0.99 1.485 0.99 1.485 2 3 C1.67 3.99 1.34 4.98 1 6 C0 5 0 5 -0.0625 2.4375 C-0.041875 1.633125 -0.02125 0.82875 0 0 Z " fill="#000000" transform="translate(316,89)"/>
<path d="M0 0 C2.64 0 5.28 0 8 0 C8 0.33 8 0.66 8 1 C5.36 1 2.72 1 0 1 C0 0.67 0 0.34 0 0 Z " fill="#040303" transform="translate(120,88)"/>
<path d="M0 0 C2.64 0 5.28 0 8 0 C8 0.33 8 0.66 8 1 C5.36 1 2.72 1 0 1 C0 0.67 0 0.34 0 0 Z " fill="#000000" transform="translate(597,87)"/>
<path d="M0 0 C0.33 0 0.66 0 1 0 C1 2.64 1 5.28 1 8 C0.67 8 0.34 8 0 8 C0 5.36 0 2.72 0 0 Z " fill="#000000" transform="translate(442,83)"/>
<path d="M0 0 C2.64 0 5.28 0 8 0 C8 0.33 8 0.66 8 1 C5.36 1 2.72 1 0 1 C0 0.67 0 0.34 0 0 Z " fill="#000000" transform="translate(471,62)"/>
<path d="M0 0 C2.64 0 5.28 0 8 0 C8 0.33 8 0.66 8 1 C5.36 1 2.72 1 0 1 C0 0.67 0 0.34 0 0 Z " fill="#000000" transform="translate(417,62)"/>
<path d="M0 0 C2.64 0 5.28 0 8 0 C8 0.33 8 0.66 8 1 C5.36 1 2.72 1 0 1 C0 0.67 0 0.34 0 0 Z " fill="#11100E" transform="translate(146,53)"/>
<path d="M0 0 C0.99 0.495 0.99 0.495 2 1 C1.67 2.65 1.34 4.3 1 6 C0.67 6 0.34 6 0 6 C0 4.02 0 2.04 0 0 Z " fill="#080809" transform="translate(162,129)"/>
<path d="M0 0 C1.98 0 3.96 0 6 0 C5.67 0.66 5.34 1.32 5 2 C3.35 1.67 1.7 1.34 0 1 C0 0.67 0 0.34 0 0 Z " fill="#020201" transform="translate(118,117)"/>
<path d="M0 0 C0.33 0 0.66 0 1 0 C1 2.31 1 4.62 1 7 C0.67 7 0.34 7 0 7 C0 4.69 0 2.38 0 0 Z " fill="#000000" transform="translate(574,102)"/>
<path d="M0 0 C1.98 0 3.96 0 6 0 C5.67 0.66 5.34 1.32 5 2 C3.35 1.67 1.7 1.34 0 1 C0 0.67 0 0.34 0 0 Z " fill="#000000" transform="translate(469,99)"/>
<path d="M0 0 C2.31 0 4.62 0 7 0 C7 0.33 7 0.66 7 1 C4.69 1 2.38 1 0 1 C0 0.67 0 0.34 0 0 Z " fill="#090908" transform="translate(145,96)"/>
<path d="M0 0 C0.33 0 0.66 0 1 0 C1 2.31 1 4.62 1 7 C0.67 7 0.34 7 0 7 C0 4.69 0 2.38 0 0 Z " fill="#000000" transform="translate(444,93)"/>
<path d="M0 0 C0.33 0 0.66 0 1 0 C1 2.31 1 4.62 1 7 C0.67 7 0.34 7 0 7 C0 4.69 0 2.38 0 0 Z " fill="#000000" transform="translate(573,92)"/>
<path d="M0 0 C0.99 0.495 0.99 0.495 2 1 C2 2.65 2 4.3 2 6 C0 2.25 0 2.25 0 0 Z " fill="#000000" transform="translate(329,88)"/>
<path d="M0 0 C0.33 0 0.66 0 1 0 C1 2.31 1 4.62 1 7 C0.67 7 0.34 7 0 7 C0 4.69 0 2.38 0 0 Z " fill="#000000" transform="translate(572,82)"/>
<path d="M0 0 C2.31 0 4.62 0 7 0 C7 0.33 7 0.66 7 1 C4.69 1 2.38 1 0 1 C0 0.67 0 0.34 0 0 Z " fill="#000000" transform="translate(471,76)"/>
<path d="M0 0 C2.31 0 4.62 0 7 0 C7 0.33 7 0.66 7 1 C4.69 1 2.38 1 0 1 C0 0.67 0 0.34 0 0 Z " fill="#000000" transform="translate(417,76)"/>
<path d="M0 0 C0.33 0 0.66 0 1 0 C1 2.31 1 4.62 1 7 C0.67 7 0.34 7 0 7 C0 4.69 0 2.38 0 0 Z " fill="#000000" transform="translate(571,72)"/>
<path d="M0 0 C1.98 0 3.96 0 6 0 C6 0.33 6 0.66 6 1 C4.02 1 2.04 1 0 1 C0 0.67 0 0.34 0 0 Z " fill="#040404" transform="translate(173,117)"/>
<path d="M0 0 C0.99 1.485 0.99 1.485 2 3 C1.34 3.66 0.68 4.32 0 5 C0 3.35 0 1.7 0 0 Z " fill="#000000" transform="translate(528,108)"/>
<path d="M0 0 C0.33 0 0.66 0 1 0 C1 1.98 1 3.96 1 6 C0.67 6 0.34 6 0 6 C0 4.02 0 2.04 0 0 Z " fill="#000000" transform="translate(407,93)"/>
<path d="M0 0 C0.33 0.66 0.66 1.32 1 2 C0.01 3.485 0.01 3.485 -1 5 C-0.67 3.35 -0.34 1.7 0 0 Z " fill="#070607" transform="translate(100,86)"/>
<path d="M0 0 C0.33 0 0.66 0 1 0 C1 1.65 1 3.3 1 5 C0.67 5 0.34 5 0 5 C0 3.35 0 1.7 0 0 Z " fill="#060606" transform="translate(182,108)"/>
<path d="M0 0 C1.32 0 2.64 0 4 0 C3.67 0.66 3.34 1.32 3 2 C2.01 1.34 1.02 0.68 0 0 Z " fill="#000000" transform="translate(595,100)"/>
<path d="M0 0 C0.33 0 0.66 0 1 0 C1 1.65 1 3.3 1 5 C0.67 5 0.34 5 0 5 C0 3.35 0 1.7 0 0 Z " fill="#090909" transform="translate(198,91)"/>
<path d="M0 0 C0.33 0 0.66 0 1 0 C1 1.65 1 3.3 1 5 C0.67 5 0.34 5 0 5 C0 3.35 0 1.7 0 0 Z " fill="#000000" transform="translate(426,89)"/>
<path d="M0 0 C0.33 0 0.66 0 1 0 C1 1.65 1 3.3 1 5 C0.67 5 0.34 5 0 5 C0 3.35 0 1.7 0 0 Z " fill="#000000" transform="translate(513,79)"/>
<path d="M0 0 C0.33 0 0.66 0 1 0 C1 1.65 1 3.3 1 5 C0.67 5 0.34 5 0 5 C0 3.35 0 1.7 0 0 Z " fill="#000000" transform="translate(370,79)"/>
<path d="M0 0 C0.33 0 0.66 0 1 0 C1 1.65 1 3.3 1 5 C0.67 5 0.34 5 0 5 C0 3.35 0 1.7 0 0 Z " fill="#050403" transform="translate(126,79)"/>
<path d="M0 0 C0.99 0 1.98 0 3 0 C2.67 0.66 2.34 1.32 2 2 C1.34 1.34 0.68 0.68 0 0 Z " fill="#000000" transform="translate(147,133)"/>
<path d="M0 0 C0.99 0.33 1.98 0.66 3 1 C2.01 1 1.02 1 0 1 C0 0.67 0 0.34 0 0 Z " fill="#0F0E0E" transform="translate(126,132)"/>
<path d="M0 0 C1 4 1 4 1 4 Z " fill="#131313" transform="translate(175,124)"/>
<path d="M0 0 C1 4 1 4 1 4 Z " fill="#000000" transform="translate(348,113)"/>
<path d="M0 0 C1 4 1 4 1 4 Z " fill="#000000" transform="translate(592,112)"/>
<path d="M0 0 C1 4 1 4 1 4 Z " fill="#000000" transform="translate(384,112)"/>
<path d="M0 0 C1 4 1 4 1 4 Z " fill="#000000" transform="translate(340,112)"/>
<path d="M0 0 C1 4 1 4 1 4 Z " fill="#000000" transform="translate(297,112)"/>
<path d="M0 0 C1 4 1 4 1 4 Z " fill="#000000" transform="translate(577,111)"/>
<path d="M0 0 C1 4 1 4 1 4 Z " fill="#000000" transform="translate(312,111)"/>
<path d="M0 0 C1 4 1 4 1 4 Z " fill="#000000" transform="translate(349,108)"/>
<path d="M0 0 C1 4 1 4 1 4 Z " fill="#000000" transform="translate(593,107)"/>
<path d="M0 0 C1 4 1 4 1 4 Z " fill="#000000" transform="translate(486,107)"/>
<path d="M0 0 C1 4 1 4 1 4 Z " fill="#000000" transform="translate(341,107)"/>
<path d="M0 0 C1 4 1 4 1 4 Z " fill="#000000" transform="translate(298,107)"/>
<path d="M0 0 C1 4 1 4 1 4 Z " fill="#000000" transform="translate(578,106)"/>
<path d="M0 0 C1 4 1 4 1 4 Z " fill="#000000" transform="translate(313,106)"/>
<path d="M0 0 C4 1 4 1 4 1 Z " fill="#000000" transform="translate(464,106)"/>
<path d="M0 0 C1 4 1 4 1 4 Z " fill="#000000" transform="translate(350,103)"/>
<path d="M0 0 C1 4 1 4 1 4 Z " fill="#000000" transform="translate(594,102)"/>
<path d="M0 0 C1 4 1 4 1 4 Z " fill="#000000" transform="translate(487,102)"/>
<path d="M0 0 C1 4 1 4 1 4 Z " fill="#000000" transform="translate(473,102)"/>
<path d="M0 0 C1 4 1 4 1 4 Z " fill="#000000" transform="translate(342,102)"/>
<path d="M0 0 C1 4 1 4 1 4 Z " fill="#000000" transform="translate(299,102)"/>
<path d="M0 0 C1 4 1 4 1 4 Z " fill="#000000" transform="translate(579,101)"/>
<path d="M0 0 C1 4 1 4 1 4 Z " fill="#000000" transform="translate(314,101)"/>
<path d="M0 0 C1 4 1 4 1 4 Z " fill="#000000" transform="translate(366,99)"/>
<path d="M0 0 C1 4 1 4 1 4 Z " fill="#000000" transform="translate(351,98)"/>
<path d="M0 0 C1 4 1 4 1 4 Z " fill="#000000" transform="translate(488,97)"/>
<path d="M0 0 C1 4 1 4 1 4 Z " fill="#000000" transform="translate(343,97)"/>
<path d="M0 0 C1 4 1 4 1 4 Z " fill="#000000" transform="translate(300,97)"/>
<path d="M0 0 C1 4 1 4 1 4 Z " fill="#000000" transform="translate(580,96)"/>
<path d="M0 0 C1 4 1 4 1 4 Z " fill="#000000" transform="translate(315,96)"/>
<path d="M0 0 C1 4 1 4 1 4 Z " fill="#000000" transform="translate(352,93)"/>
<path d="M0 0 C1 4 1 4 1 4 Z " fill="#000000" transform="translate(344,92)"/>
<path d="M0 0 C1 4 1 4 1 4 Z " fill="#000000" transform="translate(301,92)"/>
<path d="M0 0 C1 4 1 4 1 4 Z " fill="#000000" transform="translate(581,91)"/>
<path d="M0 0 C1 4 1 4 1 4 Z " fill="#000000" transform="translate(467,90)"/>
<path d="M0 0 C1 4 1 4 1 4 Z " fill="#000000" transform="translate(528,89)"/>
<path d="M0 0 C1 4 1 4 1 4 Z " fill="#000000" transform="translate(385,89)"/>
<path d="M0 0 C1 4 1 4 1 4 Z " fill="#000000" transform="translate(353,88)"/>
<path d="M0 0 C1 4 1 4 1 4 Z " fill="#000000" transform="translate(445,87)"/>
<path d="M0 0 C1 4 1 4 1 4 Z " fill="#000000" transform="translate(345,87)"/>
<path d="M0 0 C1 4 1 4 1 4 Z " fill="#000000" transform="translate(302,87)"/>
<path d="M0 0 C1 4 1 4 1 4 Z " fill="#000000" transform="translate(582,86)"/>
<path d="M0 0 C1 4 1 4 1 4 Z " fill="#000000" transform="translate(354,83)"/>
<path d="M0 0 C1 4 1 4 1 4 Z " fill="#000000" transform="translate(598,82)"/>
<path d="M0 0 C1 4 1 4 1 4 Z " fill="#000000" transform="translate(346,82)"/>
<path d="M0 0 C1 4 1 4 1 4 Z " fill="#000000" transform="translate(583,81)"/>
<path d="M0 0 C1 4 1 4 1 4 Z " fill="#000000" transform="translate(426,81)"/>
<path d="M0 0 C1 4 1 4 1 4 Z " fill="#000000" transform="translate(355,78)"/>
<path d="M0 0 C1 4 1 4 1 4 Z " fill="#000000" transform="translate(347,77)"/>
<path d="M0 0 C1 4 1 4 1 4 Z " fill="#000000" transform="translate(584,76)"/>
<path d="M0 0 C4 1 4 1 4 1 Z " fill="#080805" transform="translate(162,75)"/>
<path d="M0 0 C1 4 1 4 1 4 Z " fill="#000000" transform="translate(356,73)"/>
<path d="M0 0 C1 4 1 4 1 4 Z " fill="#000000" transform="translate(348,72)"/>
<path d="M0 0 C1 4 1 4 1 4 Z " fill="#000000" transform="translate(585,71)"/>
<path d="M0 0 C1 4 1 4 1 4 Z " fill="#000000" transform="translate(535,69)"/>
<path d="M0 0 C1 4 1 4 1 4 Z " fill="#000000" transform="translate(392,68)"/>
<path d="M0 0 C1 4 1 4 1 4 Z " fill="#000000" transform="translate(357,68)"/>
<path d="M0 0 C1 4 1 4 1 4 Z " fill="#000000" transform="translate(349,67)"/>
<path d="M0 0 C4 1 4 1 4 1 Z " fill="#070706" transform="translate(155,68)"/>
<path d="M0 0 C4 1 4 1 4 1 Z " fill="#040504" transform="translate(138,68)"/>
<path d="M0 0 C1 4 1 4 1 4 Z " fill="#000000" transform="translate(586,66)"/>
<path d="M0 0 C1 4 1 4 1 4 Z " fill="#000000" transform="translate(570,65)"/>
<path d="M0 0 C4 1 4 1 4 1 Z " fill="#070605" transform="translate(134,55)"/>
<path d="M0 0 C4 1 4 1 4 1 Z " fill="#060504" transform="translate(139,54)"/>
<path d="M0 0 C0.33 0.66 0.66 1.32 1 2 C0.34 1.67 -0.32 1.34 -1 1 C-0.67 0.67 -0.34 0.34 0 0 Z " fill="#040405" transform="translate(195,140)"/>
<path d="M0 0 C0.33 0.66 0.66 1.32 1 2 C0.34 1.67 -0.32 1.34 -1 1 C-0.67 0.67 -0.34 0.34 0 0 Z " fill="#0D0C0D" transform="translate(179,140)"/>
<path d="M0 0 C0.33 0.66 0.66 1.32 1 2 C0.34 1.67 -0.32 1.34 -1 1 C-0.67 0.67 -0.34 0.34 0 0 Z " fill="#0A0B0F" transform="translate(115,140)"/>
<path d="M0 0 C0.66 0.66 1.32 1.32 2 2 C1.34 2 0.68 2 0 2 C0 1.34 0 0.68 0 0 Z " fill="#101010" transform="translate(97,140)"/>
<path d="M0 0 C0.33 0.66 0.66 1.32 1 2 C0.34 1.67 -0.32 1.34 -1 1 C-0.67 0.67 -0.34 0.34 0 0 Z " fill="#040406" transform="translate(65,140)"/>
<path d="M0 0 C0.66 0.66 1.32 1.32 2 2 C1.34 2 0.68 2 0 2 C0 1.34 0 0.68 0 0 Z " fill="#050505" transform="translate(47,140)"/>
<path d="" fill="#101111" transform="translate(0,0)"/>
<path d="M0 0 C3 1 3 1 3 1 Z " fill="#0D0C0C" transform="translate(72,130)"/>
<path d="M0 0 C3 1 3 1 3 1 Z " fill="#030303" transform="translate(55,130)"/>
<path d="M0 0 C3 1 3 1 3 1 Z " fill="#000000" transform="translate(473,119)"/>
<path d="M0 0 C3 1 3 1 3 1 Z " fill="#000000" transform="translate(419,119)"/>
<path d="" fill="#000000" transform="translate(0,0)"/>
<path d="" fill="#000000" transform="translate(0,0)"/>
<path d="" fill="#000000" transform="translate(0,0)"/>
<path d="" fill="#000000" transform="translate(0,0)"/>
<path d="" fill="#000000" transform="translate(0,0)"/>
<path d="" fill="#000000" transform="translate(0,0)"/>
<path d="M0 0 C3 1 3 1 3 1 Z " fill="#000000" transform="translate(415,106)"/>
<path d="" fill="#000000" transform="translate(0,0)"/>
<path d="" fill="#010101" transform="translate(0,0)"/>
<path d="" fill="#000000" transform="translate(0,0)"/>
<path d="M0 0 C0.66 0.66 1.32 1.32 2 2 C1.34 2 0.68 2 0 2 C0 1.34 0 0.68 0 0 Z " fill="#000000" transform="translate(462,104)"/>
<path d="" fill="#2B2E2B" transform="translate(0,0)"/>
<path d="" fill="#000000" transform="translate(0,0)"/>
<path d="" fill="#0C0C0B" transform="translate(0,0)"/>
<path d="" fill="#010101" transform="translate(0,0)"/>
<path d="" fill="#000000" transform="translate(0,0)"/>
<path d="" fill="#000000" transform="translate(0,0)"/>
<path d="" fill="#000000" transform="translate(0,0)"/>
<path d="M0 0 C0.66 0 1.32 0 2 0 C1.67 0.66 1.34 1.32 1 2 C0.67 1.34 0.34 0.68 0 0 Z " fill="#0F0D0C" transform="translate(154,98)"/>
<path d="" fill="#080608" transform="translate(0,0)"/>
<path d="" fill="#000000" transform="translate(0,0)"/>
<path d="" fill="#000000" transform="translate(0,0)"/>
<path d="" fill="#000000" transform="translate(0,0)"/>
<path d="" fill="#000000" transform="translate(0,0)"/>
<path d="" fill="#000000" transform="translate(0,0)"/>
<path d="" fill="#000000" transform="translate(0,0)"/>
<path d="" fill="#000000" transform="translate(0,0)"/>
<path d="" fill="#000000" transform="translate(0,0)"/>
<path d="" fill="#000000" transform="translate(0,0)"/>
<path d="" fill="#000000" transform="translate(0,0)"/>
<path d="" fill="#000000" transform="translate(0,0)"/>
<path d="" fill="#000000" transform="translate(0,0)"/>
<path d="" fill="#040403" transform="translate(0,0)"/>
<path d="" fill="#000000" transform="translate(0,0)"/>
<path d="" fill="#000000" transform="translate(0,0)"/>
<path d="" fill="#000000" transform="translate(0,0)"/>
<path d="" fill="#000000" transform="translate(0,0)"/>
<path d="" fill="#000000" transform="translate(0,0)"/>
<path d="" fill="#000000" transform="translate(0,0)"/>
<path d="" fill="#000000" transform="translate(0,0)"/>
<path d="" fill="#000000" transform="translate(0,0)"/>
<path d="" fill="#000000" transform="translate(0,0)"/>
<path d="M0 0 C0.66 0 1.32 0 2 0 C1.67 0.66 1.34 1.32 1 2 C0.67 1.34 0.34 0.68 0 0 Z " fill="#000000" transform="translate(478,77)"/>
<path d="" fill="#000000" transform="translate(0,0)"/>
<path d="" fill="#000000" transform="translate(0,0)"/>
<path d="" fill="#000000" transform="translate(0,0)"/>
<path d="" fill="#0F0F10" transform="translate(0,0)"/>
<path d="M0 0 C3 1 3 1 3 1 Z " fill="#0E0B08" transform="translate(131,75)"/>
<path d="" fill="#000000" transform="translate(0,0)"/>
<path d="" fill="#000000" transform="translate(0,0)"/>
<path d="" fill="#000000" transform="translate(0,0)"/>
<path d="" fill="#000000" transform="translate(0,0)"/>
<path d="M0 0 C3 1 3 1 3 1 Z " fill="#010102" transform="translate(147,70)"/>
<path d="" fill="#000000" transform="translate(0,0)"/>
<path d="M0 0 C3 1 3 1 3 1 Z " fill="#0B0B0B" transform="translate(159,69)"/>
<path d="" fill="#000000" transform="translate(0,0)"/>
<path d="M0 0 C3 1 3 1 3 1 Z " fill="#000000" transform="translate(413,63)"/>
<path d="M0 0 C3 1 3 1 3 1 Z " fill="#050403" transform="translate(131,56)"/>
<path d="M0 0 C3 1 3 1 3 1 Z " fill="#0B0B09" transform="translate(160,55)"/>
<path d="M0 0 C3 1 3 1 3 1 Z " fill="#0C0D0B" transform="translate(156,54)"/>
<path d="M0 0 C2 1 2 1 2 1 Z " fill="#171717" transform="translate(131,141)"/>
<path d="" fill="#020201" transform="translate(0,0)"/>
<path d="" fill="#080808" transform="translate(0,0)"/>
<path d="" fill="#060607" transform="translate(0,0)"/>
<path d="" fill="#010000" transform="translate(0,0)"/>
<path d="" fill="#121112" transform="translate(0,0)"/>
<path d="" fill="#0F0F10" transform="translate(0,0)"/>
<path d="" fill="#0B0A0C" transform="translate(0,0)"/>
<path d="" fill="#010000" transform="translate(0,0)"/>
<path d="" fill="#020102" transform="translate(0,0)"/>
<path d="" fill="#000000" transform="translate(0,0)"/>
<path d="" fill="#0F0E0F" transform="translate(0,0)"/>
<path d="" fill="#040305" transform="translate(0,0)"/>
<path d="" fill="#1A171C" transform="translate(0,0)"/>
<path d="" fill="#000100" transform="translate(0,0)"/>
<path d="" fill="#060606" transform="translate(0,0)"/>
<path d="" fill="#050404" transform="translate(0,0)"/>
<path d="" fill="#000000" transform="translate(0,0)"/>
<path d="" fill="#080707" transform="translate(0,0)"/>
<path d="" fill="#000000" transform="translate(0,0)"/>
<path d="" fill="#131414" transform="translate(0,0)"/>
<path d="" fill="#191918" transform="translate(0,0)"/>
<path d="" fill="#0A090A" transform="translate(0,0)"/>
<path d="" fill="#0B0B0B" transform="translate(0,0)"/>
<path d="" fill="#000000" transform="translate(0,0)"/>
<path d="" fill="#000000" transform="translate(0,0)"/>
<path d="" fill="#0A0A0A" transform="translate(0,0)"/>
<path d="" fill="#101010" transform="translate(0,0)"/>
<path d="" fill="#1B1B1B" transform="translate(0,0)"/>
<path d="" fill="#000000" transform="translate(0,0)"/>
<path d="" fill="#0A090B" transform="translate(0,0)"/>
<path d="" fill="#060506" transform="translate(0,0)"/>
<path d="" fill="#181718" transform="translate(0,0)"/>
<path d="" fill="#0F0E0E" transform="translate(0,0)"/>
<path d="" fill="#0B0B0B" transform="translate(0,0)"/>
<path d="" fill="#141314" transform="translate(0,0)"/>
<path d="" fill="#0A0A0B" transform="translate(0,0)"/>
<path d="" fill="#000000" transform="translate(0,0)"/>
<path d="" fill="#010101" transform="translate(0,0)"/>
<path d="" fill="#030303" transform="translate(0,0)"/>
<path d="" fill="#333433" transform="translate(0,0)"/>
<path d="" fill="#201E20" transform="translate(0,0)"/>
<path d="" fill="#040403" transform="translate(0,0)"/>
<path d="M0 0 C2 1 2 1 2 1 Z " fill="#040303" transform="translate(202,130)"/>
<path d="M0 0 C2 1 2 1 2 1 Z " fill="#080808" transform="translate(164,130)"/>
<path d="M0 0 C2 1 2 1 2 1 Z " fill="#030303" transform="translate(89,130)"/>
<path d="M0 0 C2 1 2 1 2 1 Z " fill="#000000" transform="translate(39,130)"/>
<path d="" fill="#000000" transform="translate(0,0)"/>
<path d="" fill="#090809" transform="translate(0,0)"/>
<path d="" fill="#000000" transform="translate(0,0)"/>
<path d="M0 0 C2 1 2 1 2 1 Z " fill="#000000" transform="translate(459,119)"/>
<path d="M0 0 C2 1 2 1 2 1 Z " fill="#000000" transform="translate(406,119)"/>
<path d="M0 0 C2 1 2 1 2 1 Z " fill="#000000" transform="translate(456,118)"/>
<path d="M0 0 C2 1 2 1 2 1 Z " fill="#000000" transform="translate(422,118)"/>
<path d="M0 0 C2 1 2 1 2 1 Z " fill="#000000" transform="translate(479,117)"/>
<path d="M0 0 C2 1 2 1 2 1 Z " fill="#000000" transform="translate(402,117)"/>
<path d="" fill="#000000" transform="translate(0,0)"/>
<path d="" fill="#000000" transform="translate(0,0)"/>
<path d="M0 0 C2 1 2 1 2 1 Z " fill="#000000" transform="translate(453,116)"/>
<path d="" fill="#000000" transform="translate(0,0)"/>
<path d="" fill="#000000" transform="translate(0,0)"/>
<path d="M0 0 C2 1 2 1 2 1 Z " fill="#000000" transform="translate(482,115)"/>
<path d="" fill="#000000" transform="translate(0,0)"/>
<path d="M0 0 C2 1 2 1 2 1 Z " fill="#121212" transform="translate(208,114)"/>
<path d="M0 0 C2 1 2 1 2 1 Z " fill="#010101" transform="translate(153,114)"/>
<path d="M0 0 C2 1 2 1 2 1 Z " fill="#090808" transform="translate(142,114)"/>
<path d="" fill="#000000" transform="translate(0,0)"/>
<path d="" fill="#000000" transform="translate(0,0)"/>
<path d="" fill="#000000" transform="translate(0,0)"/>
<path d="" fill="#000000" transform="translate(0,0)"/>
<path d="" fill="#000000" transform="translate(0,0)"/>
<path d="" fill="#000000" transform="translate(0,0)"/>
<path d="" fill="#0D0D10" transform="translate(0,0)"/>
<path d="" fill="#000000" transform="translate(0,0)"/>
<path d="" fill="#000000" transform="translate(0,0)"/>
<path d="" fill="#000000" transform="translate(0,0)"/>
<path d="" fill="#0C0B0E" transform="translate(0,0)"/>
<path d="" fill="#040605" transform="translate(0,0)"/>
<path d="" fill="#000000" transform="translate(0,0)"/>
<path d="" fill="#000000" transform="translate(0,0)"/>
<path d="" fill="#000000" transform="translate(0,0)"/>
<path d="" fill="#000000" transform="translate(0,0)"/>
<path d="" fill="#000000" transform="translate(0,0)"/>
<path d="" fill="#000000" transform="translate(0,0)"/>
<path d="" fill="#000000" transform="translate(0,0)"/>
<path d="M0 0 C2 1 2 1 2 1 Z " fill="#000000" transform="translate(471,106)"/>
<path d="M0 0 C2 1 2 1 2 1 Z " fill="#000000" transform="translate(411,106)"/>
<path d="" fill="#000000" transform="translate(0,0)"/>
<path d="" fill="#000000" transform="translate(0,0)"/>
<path d="M0 0 C2 1 2 1 2 1 Z " fill="#000000" transform="translate(418,105)"/>
<path d="" fill="#000000" transform="translate(0,0)"/>
<path d="" fill="#000000" transform="translate(0,0)"/>
<path d="" fill="#000000" transform="translate(0,0)"/>
<path d="" fill="#000000" transform="translate(0,0)"/>
<path d="" fill="#000000" transform="translate(0,0)"/>
<path d="" fill="#000000" transform="translate(0,0)"/>
<path d="" fill="#000000" transform="translate(0,0)"/>
<path d="" fill="#000000" transform="translate(0,0)"/>
<path d="" fill="#030304" transform="translate(0,0)"/>
<path d="" fill="#000000" transform="translate(0,0)"/>
<path d="" fill="#000000" transform="translate(0,0)"/>
<path d="" fill="#000000" transform="translate(0,0)"/>
<path d="" fill="#000000" transform="translate(0,0)"/>
<path d="" fill="#000000" transform="translate(0,0)"/>
<path d="" fill="#0D0D0D" transform="translate(0,0)"/>
<path d="" fill="#000000" transform="translate(0,0)"/>
<path d="" fill="#000000" transform="translate(0,0)"/>
<path d="" fill="#000000" transform="translate(0,0)"/>
<path d="" fill="#000000" transform="translate(0,0)"/>
<path d="M0 0 C2 1 2 1 2 1 Z " fill="#000000" transform="translate(142,97)"/>
<path d="" fill="#020101" transform="translate(0,0)"/>
<path d="" fill="#000000" transform="translate(0,0)"/>
<path d="" fill="#070606" transform="translate(0,0)"/>
<path d="" fill="#000000" transform="translate(0,0)"/>
<path d="" fill="#000000" transform="translate(0,0)"/>
<path d="" fill="#0B0C0B" transform="translate(0,0)"/>
<path d="" fill="#010101" transform="translate(0,0)"/>
<path d="" fill="#000000" transform="translate(0,0)"/>
<path d="" fill="#000000" transform="translate(0,0)"/>
<path d="" fill="#0A090A" transform="translate(0,0)"/>
<path d="" fill="#020101" transform="translate(0,0)"/>
<path d="" fill="#050405" transform="translate(0,0)"/>
<path d="" fill="#000000" transform="translate(0,0)"/>
<path d="" fill="#000000" transform="translate(0,0)"/>
<path d="" fill="#000000" transform="translate(0,0)"/>
<path d="" fill="#000000" transform="translate(0,0)"/>
<path d="" fill="#020202" transform="translate(0,0)"/>
<path d="" fill="#000000" transform="translate(0,0)"/>
<path d="" fill="#000000" transform="translate(0,0)"/>
<path d="" fill="#000000" transform="translate(0,0)"/>
<path d="" fill="#000000" transform="translate(0,0)"/>
<path d="" fill="#050506" transform="translate(0,0)"/>
<path d="M0 0 C2 1 2 1 2 1 Z " fill="#000000" transform="translate(606,86)"/>
<path d="" fill="#000000" transform="translate(0,0)"/>
<path d="" fill="#000000" transform="translate(0,0)"/>
<path d="" fill="#000000" transform="translate(0,0)"/>
<path d="" fill="#000000" transform="translate(0,0)"/>
<path d="" fill="#000000" transform="translate(0,0)"/>
<path d="" fill="#000000" transform="translate(0,0)"/>
<path d="" fill="#000000" transform="translate(0,0)"/>
<path d="" fill="#000000" transform="translate(0,0)"/>
<path d="" fill="#000000" transform="translate(0,0)"/>
<path d="" fill="#000000" transform="translate(0,0)"/>
<path d="" fill="#000000" transform="translate(0,0)"/>
<path d="" fill="#000000" transform="translate(0,0)"/>
<path d="" fill="#020201" transform="translate(0,0)"/>
<path d="" fill="#0A090A" transform="translate(0,0)"/>
<path d="" fill="#000000" transform="translate(0,0)"/>
<path d="" fill="#000000" transform="translate(0,0)"/>
<path d="" fill="#000000" transform="translate(0,0)"/>
<path d="" fill="#000000" transform="translate(0,0)"/>
<path d="" fill="#000000" transform="translate(0,0)"/>
<path d="" fill="#000000" transform="translate(0,0)"/>
<path d="M0 0 C2 1 2 1 2 1 Z " fill="#000000" transform="translate(139,79)"/>
<path d="" fill="#040201" transform="translate(0,0)"/>
<path d="" fill="#000000" transform="translate(0,0)"/>
<path d="" fill="#030304" transform="translate(0,0)"/>
<path d="M0 0 C2 1 2 1 2 1 Z " fill="#171515" transform="translate(137,78)"/>
<path d="" fill="#000000" transform="translate(0,0)"/>
<path d="M0 0 C2 1 2 1 2 1 Z " fill="#000000" transform="translate(468,77)"/>
<path d="" fill="#000000" transform="translate(0,0)"/>
<path d="M0 0 C2 1 2 1 2 1 Z " fill="#000000" transform="translate(415,77)"/>
<path d="" fill="#000000" transform="translate(0,0)"/>
<path d="M0 0 C2 1 2 1 2 1 Z " fill="#000000" transform="translate(487,76)"/>
<path d="" fill="#000000" transform="translate(0,0)"/>
<path d="" fill="#000000" transform="translate(0,0)"/>
<path d="" fill="#040101" transform="translate(0,0)"/>
<path d="M0 0 C2 1 2 1 2 1 Z " fill="#080807" transform="translate(171,75)"/>
<path d="" fill="#010101" transform="translate(0,0)"/>
<path d="" fill="#000000" transform="translate(0,0)"/>
<path d="" fill="#000000" transform="translate(0,0)"/>
<path d="M0 0 C2 1 2 1 2 1 Z " fill="#131212" transform="translate(125,74)"/>
<path d="" fill="#000000" transform="translate(0,0)"/>
<path d="" fill="#000000" transform="translate(0,0)"/>
<path d="" fill="#000000" transform="translate(0,0)"/>
<path d="" fill="#000000" transform="translate(0,0)"/>
<path d="" fill="#000000" transform="translate(0,0)"/>
<path d="M0 0 C2 1 2 1 2 1 Z " fill="#0F0E0E" transform="translate(128,72)"/>
<path d="" fill="#000000" transform="translate(0,0)"/>
<path d="M0 0 C2 1 2 1 2 1 Z " fill="#0E0D0C" transform="translate(130,71)"/>
<path d="" fill="#000000" transform="translate(0,0)"/>
<path d="M0 0 C2 1 2 1 2 1 Z " fill="#121211" transform="translate(162,70)"/>
<path d="M0 0 C2 1 2 1 2 1 Z " fill="#080807" transform="translate(132,70)"/>
<path d="" fill="#000000" transform="translate(0,0)"/>
<path d="M0 0 C2 1 2 1 2 1 Z " fill="#000000" transform="translate(456,69)"/>
<path d="M0 0 C2 1 2 1 2 1 Z " fill="#040403" transform="translate(135,69)"/>
<path d="" fill="#000000" transform="translate(0,0)"/>
<path d="" fill="#000000" transform="translate(0,0)"/>
<path d="M0 0 C2 1 2 1 2 1 Z " fill="#000000" transform="translate(617,66)"/>
<path d="" fill="#000000" transform="translate(0,0)"/>
<path d="M0 0 C2 1 2 1 2 1 Z " fill="#000000" transform="translate(460,66)"/>
<path d="M0 0 C2 1 2 1 2 1 Z " fill="#000000" transform="translate(407,66)"/>
<path d="" fill="#000000" transform="translate(0,0)"/>
<path d="" fill="#000000" transform="translate(0,0)"/>
<path d="M0 0 C2 1 2 1 2 1 Z " fill="#000000" transform="translate(615,65)"/>
<path d="M0 0 C2 1 2 1 2 1 Z " fill="#000000" transform="translate(484,65)"/>
<path d="M0 0 C2 1 2 1 2 1 Z " fill="#000000" transform="translate(462,65)"/>
<path d="M0 0 C2 1 2 1 2 1 Z " fill="#000000" transform="translate(612,64)"/>
<path d="M0 0 C2 1 2 1 2 1 Z " fill="#000000" transform="translate(464,64)"/>
<path d="M0 0 C2 1 2 1 2 1 Z " fill="#000000" transform="translate(429,64)"/>
<path d="M0 0 C2 1 2 1 2 1 Z " fill="#000000" transform="translate(411,64)"/>
<path d="M0 0 C2 1 2 1 2 1 Z " fill="#000000" transform="translate(480,63)"/>
<path d="M0 0 C2 1 2 1 2 1 Z " fill="#000000" transform="translate(467,63)"/>
<path d="M0 0 C2 1 2 1 2 1 Z " fill="#000000" transform="translate(426,63)"/>
<path d="M0 0 C2 1 2 1 2 1 Z " fill="#171616" transform="translate(177,63)"/>
<path d="M0 0 C2 1 2 1 2 1 Z " fill="#060302" transform="translate(118,63)"/>
<path d="M0 0 C2 1 2 1 2 1 Z " fill="#0F0E0E" transform="translate(174,61)"/>
<path d="M0 0 C2 1 2 1 2 1 Z " fill="#040201" transform="translate(121,61)"/>
<path d="M0 0 C2 1 2 1 2 1 Z " fill="#0C0B0B" transform="translate(166,57)"/>
<path d="M0 0 C2 1 2 1 2 1 Z " fill="#060404" transform="translate(129,57)"/>
<path d="M0 0 C2 1 2 1 2 1 Z " fill="#0C0B0A" transform="translate(164,56)"/>
<path d="" fill="#020201" transform="translate(0,0)"/>
<path d="M0 0 C2 1 2 1 2 1 Z " fill="#1F1E1E" transform="translate(197,22)"/>
<path d="" fill="#1A1918" transform="translate(0,0)"/>
<path d="" fill="#121211" transform="translate(0,0)"/>
<path d="" fill="#080709" transform="translate(0,0)"/>
<path d="" fill="#010000" transform="translate(0,0)"/>
<path d="" fill="#000000" transform="translate(0,0)"/>
<path d="" fill="#000000" transform="translate(0,0)"/>
<path d="" fill="#010101" transform="translate(0,0)"/>
<path d="" fill="#1A1517" transform="translate(0,0)"/>
<path d="" fill="#040103" transform="translate(0,0)"/>
<path d="" fill="#060707" transform="translate(0,0)"/>
<path d="" fill="#040202" transform="translate(0,0)"/>
<path d="" fill="#000000" transform="translate(0,0)"/>
<path d="" fill="#0D0D0F" transform="translate(0,0)"/>
<path d="" fill="#454340" transform="translate(0,0)"/>
<path d="" fill="#101010" transform="translate(0,0)"/>
<path d="" fill="#000000" transform="translate(0,0)"/>
<path d="" fill="#313132" transform="translate(0,0)"/>
<path d="" fill="#010000" transform="translate(0,0)"/>
<path d="" fill="#000000" transform="translate(0,0)"/>
<path d="" fill="#020100" transform="translate(0,0)"/>
<path d="" fill="#54524E" transform="translate(0,0)"/>
<path d="" fill="#080707" transform="translate(0,0)"/>
<path d="" fill="#010000" transform="translate(0,0)"/>
<path d="" fill="#000000" transform="translate(0,0)"/>
<path d="" fill="#030303" transform="translate(0,0)"/>
<path d="" fill="#010000" transform="translate(0,0)"/>
<path d="" fill="#000000" transform="translate(0,0)"/>
<path d="" fill="#020101" transform="translate(0,0)"/>
<path d="" fill="#000000" transform="translate(0,0)"/>
<path d="" fill="#010100" transform="translate(0,0)"/>
<path d="" fill="#0A0A0A" transform="translate(0,0)"/>
<path d="" fill="#000000" transform="translate(0,0)"/>
<path d="" fill="#000013" transform="translate(0,0)"/>
<path d="" fill="#000000" transform="translate(0,0)"/>
<path d="" fill="#000000" transform="translate(0,0)"/>
<path d="" fill="#090405" transform="translate(0,0)"/>
<path d="" fill="#000000" transform="translate(0,0)"/>
<path d="" fill="#000000" transform="translate(0,0)"/>
<path d="" fill="#010000" transform="translate(0,0)"/>
<path d="" fill="#000000" transform="translate(0,0)"/>
<path d="" fill="#393A3B" transform="translate(0,0)"/>
<path d="" fill="#131314" transform="translate(0,0)"/>
<path d="" fill="#1B191C" transform="translate(0,0)"/>
<path d="" fill="#000000" transform="translate(0,0)"/>
<path d="" fill="#020001" transform="translate(0,0)"/>
<path d="" fill="#030202" transform="translate(0,0)"/>
<path d="" fill="#020202" transform="translate(0,0)"/>
<path d="" fill="#000000" transform="translate(0,0)"/>
<path d="" fill="#010301" transform="translate(0,0)"/>
<path d="" fill="#000000" transform="translate(0,0)"/>
<path d="" fill="#030001" transform="translate(0,0)"/>
<path d="" fill="#030501" transform="translate(0,0)"/>
<path d="" fill="#474746" transform="translate(0,0)"/>
<path d="" fill="#000000" transform="translate(0,0)"/>
<path d="" fill="#131213" transform="translate(0,0)"/>
<path d="" fill="#211F22" transform="translate(0,0)"/>
<path d="" fill="#000000" transform="translate(0,0)"/>
<path d="" fill="#000000" transform="translate(0,0)"/>
<path d="" fill="#000000" transform="translate(0,0)"/>
<path d="" fill="#070707" transform="translate(0,0)"/>
<path d="" fill="#000000" transform="translate(0,0)"/>
<path d="" fill="#000000" transform="translate(0,0)"/>
<path d="" fill="#030301" transform="translate(0,0)"/>
<path d="" fill="#0F0D0C" transform="translate(0,0)"/>
<path d="" fill="#000000" transform="translate(0,0)"/>
<path d="" fill="#000000" transform="translate(0,0)"/>
<path d="" fill="#030203" transform="translate(0,0)"/>
<path d="" fill="#000000" transform="translate(0,0)"/>
<path d="" fill="#010102" transform="translate(0,0)"/>
<path d="" fill="#000000" transform="translate(0,0)"/>
<path d="" fill="#000000" transform="translate(0,0)"/>
<path d="" fill="#000000" transform="translate(0,0)"/>
<path d="" fill="#000000" transform="translate(0,0)"/>
<path d="" fill="#000000" transform="translate(0,0)"/>
<path d="" fill="#000000" transform="translate(0,0)"/>
<path d="" fill="#000000" transform="translate(0,0)"/>
<path d="" fill="#000000" transform="translate(0,0)"/>
<path d="" fill="#000000" transform="translate(0,0)"/>
<path d="" fill="#000000" transform="translate(0,0)"/>
<path d="" fill="#000000" transform="translate(0,0)"/>
<path d="" fill="#000000" transform="translate(0,0)"/>
<path d="" fill="#000000" transform="translate(0,0)"/>
<path d="" fill="#010000" transform="translate(0,0)"/>
<path d="" fill="#000000" transform="translate(0,0)"/>
<path d="" fill="#000000" transform="translate(0,0)"/>
<path d="" fill="#000000" transform="translate(0,0)"/>
<path d="" fill="#000000" transform="translate(0,0)"/>
<path d="" fill="#0D0D0D" transform="translate(0,0)"/>
<path d="" fill="#000000" transform="translate(0,0)"/>
<path d="" fill="#000000" transform="translate(0,0)"/>
<path d="" fill="#000000" transform="translate(0,0)"/>
<path d="" fill="#000000" transform="translate(0,0)"/>
<path d="" fill="#000000" transform="translate(0,0)"/>
<path d="" fill="#0C0D0B" transform="translate(0,0)"/>
<path d="" fill="#000000" transform="translate(0,0)"/>
<path d="" fill="#000000" transform="translate(0,0)"/>
<path d="" fill="#000000" transform="translate(0,0)"/>
<path d="" fill="#000000" transform="translate(0,0)"/>
<path d="" fill="#000000" transform="translate(0,0)"/>
<path d="" fill="#000000" transform="translate(0,0)"/>
<path d="" fill="#000101" transform="translate(0,0)"/>
<path d="" fill="#000000" transform="translate(0,0)"/>
<path d="" fill="#060507" transform="translate(0,0)"/>
<path d="" fill="#000000" transform="translate(0,0)"/>
<path d="" fill="#000000" transform="translate(0,0)"/>
<path d="" fill="#000000" transform="translate(0,0)"/>
<path d="" fill="#000000" transform="translate(0,0)"/>
<path d="" fill="#000000" transform="translate(0,0)"/>
<path d="" fill="#000000" transform="translate(0,0)"/>
<path d="" fill="#000000" transform="translate(0,0)"/>
<path d="" fill="#000000" transform="translate(0,0)"/>
<path d="" fill="#000000" transform="translate(0,0)"/>
<path d="" fill="#000000" transform="translate(0,0)"/>
<path d="" fill="#000000" transform="translate(0,0)"/>
<path d="" fill="#000000" transform="translate(0,0)"/>
<path d="" fill="#000000" transform="translate(0,0)"/>
<path d="" fill="#000000" transform="translate(0,0)"/>
<path d="" fill="#000000" transform="translate(0,0)"/>
<path d="" fill="#000000" transform="translate(0,0)"/>
<path d="" fill="#000000" transform="translate(0,0)"/>
<path d="" fill="#000000" transform="translate(0,0)"/>
<path d="" fill="#000000" transform="translate(0,0)"/>
<path d="" fill="#000000" transform="translate(0,0)"/>
<path d="" fill="#000000" transform="translate(0,0)"/>
<path d="" fill="#000000" transform="translate(0,0)"/>
<path d="" fill="#000000" transform="translate(0,0)"/>
<path d="" fill="#000000" transform="translate(0,0)"/>
<path d="" fill="#0C0B0B" transform="translate(0,0)"/>
<path d="" fill="#000000" transform="translate(0,0)"/>
<path d="" fill="#000000" transform="translate(0,0)"/>
<path d="" fill="#000000" transform="translate(0,0)"/>
<path d="" fill="#040303" transform="translate(0,0)"/>
<path d="" fill="#000000" transform="translate(0,0)"/>
<path d="" fill="#000000" transform="translate(0,0)"/>
<path d="" fill="#181717" transform="translate(0,0)"/>
<path d="" fill="#070806" transform="translate(0,0)"/>
<path d="" fill="#000000" transform="translate(0,0)"/>
<path d="" fill="#21201E" transform="translate(0,0)"/>
<path d="" fill="#0C0C0A" transform="translate(0,0)"/>
<path d="" fill="#000000" transform="translate(0,0)"/>
<path d="" fill="#262524" transform="translate(0,0)"/>
<path d="" fill="#000000" transform="translate(0,0)"/>
<path d="" fill="#000101" transform="translate(0,0)"/>
<path d="" fill="#000000" transform="translate(0,0)"/>
<path d="" fill="#000000" transform="translate(0,0)"/>
<path d="" fill="#000000" transform="translate(0,0)"/>
<path d="" fill="#000000" transform="translate(0,0)"/>
<path d="" fill="#000000" transform="translate(0,0)"/>
<path d="" fill="#000000" transform="translate(0,0)"/>
<path d="" fill="#000000" transform="translate(0,0)"/>
<path d="" fill="#000000" transform="translate(0,0)"/>
<path d="" fill="#000000" transform="translate(0,0)"/>
<path d="" fill="#000000" transform="translate(0,0)"/>
<path d="" fill="#000000" transform="translate(0,0)"/>
<path d="" fill="#040404" transform="translate(0,0)"/>
<path d="" fill="#000000" transform="translate(0,0)"/>
<path d="" fill="#000000" transform="translate(0,0)"/>
<path d="" fill="#000000" transform="translate(0,0)"/>
<path d="" fill="#000000" transform="translate(0,0)"/>
<path d="" fill="#090908" transform="translate(0,0)"/>
<path d="" fill="#060506" transform="translate(0,0)"/>
<path d="" fill="#000000" transform="translate(0,0)"/>
<path d="" fill="#000000" transform="translate(0,0)"/>
<path d="" fill="#000000" transform="translate(0,0)"/>
<path d="" fill="#020101" transform="translate(0,0)"/>
<path d="" fill="#000000" transform="translate(0,0)"/>
<path d="" fill="#000000" transform="translate(0,0)"/>
<path d="" fill="#040404" transform="translate(0,0)"/>
<path d="" fill="#000000" transform="translate(0,0)"/>
<path d="" fill="#000000" transform="translate(0,0)"/>
<path d="" fill="#000000" transform="translate(0,0)"/>
<path d="" fill="#030203" transform="translate(0,0)"/>
<path d="" fill="#000000" transform="translate(0,0)"/>
<path d="" fill="#000000" transform="translate(0,0)"/>
<path d="" fill="#000000" transform="translate(0,0)"/>
<path d="" fill="#000000" transform="translate(0,0)"/>
<path d="" fill="#000000" transform="translate(0,0)"/>
<path d="" fill="#000000" transform="translate(0,0)"/>
<path d="" fill="#1F1D19" transform="translate(0,0)"/>
<path d="" fill="#0E0D0E" transform="translate(0,0)"/>
<path d="" fill="#000000" transform="translate(0,0)"/>
<path d="" fill="#000000" transform="translate(0,0)"/>
<path d="" fill="#000000" transform="translate(0,0)"/>
<path d="" fill="#000000" transform="translate(0,0)"/>
<path d="" fill="#000000" transform="translate(0,0)"/>
<path d="" fill="#020202" transform="translate(0,0)"/>
<path d="" fill="#2A2829" transform="translate(0,0)"/>
<path d="" fill="#000000" transform="translate(0,0)"/>
<path d="" fill="#000000" transform="translate(0,0)"/>
<path d="" fill="#000000" transform="translate(0,0)"/>
<path d="" fill="#000000" transform="translate(0,0)"/>
<path d="" fill="#0D0D0D" transform="translate(0,0)"/>
<path d="" fill="#030202" transform="translate(0,0)"/>
<path d="" fill="#0D0C0B" transform="translate(0,0)"/>
<path d="" fill="#070504" transform="translate(0,0)"/>
<path d="" fill="#010000" transform="translate(0,0)"/>
<path d="" fill="#2E2B2A" transform="translate(0,0)"/>
<path d="" fill="#000000" transform="translate(0,0)"/>
<path d="" fill="#000000" transform="translate(0,0)"/>
<path d="" fill="#000000" transform="translate(0,0)"/>
<path d="" fill="#000000" transform="translate(0,0)"/>
<path d="" fill="#000000" transform="translate(0,0)"/>
<path d="" fill="#050504" transform="translate(0,0)"/>
<path d="" fill="#000000" transform="translate(0,0)"/>
<path d="" fill="#0A0A0B" transform="translate(0,0)"/>
<path d="" fill="#000001" transform="translate(0,0)"/>
<path d="" fill="#2D2A28" transform="translate(0,0)"/>
<path d="" fill="#000100" transform="translate(0,0)"/>
<path d="" fill="#000000" transform="translate(0,0)"/>
<path d="" fill="#000000" transform="translate(0,0)"/>
<path d="" fill="#030301" transform="translate(0,0)"/>
<path d="" fill="#000000" transform="translate(0,0)"/>
<path d="" fill="#0B0A0B" transform="translate(0,0)"/>
<path d="" fill="#0A0806" transform="translate(0,0)"/>
<path d="" fill="#1B1916" transform="translate(0,0)"/>
<path d="" fill="#000000" transform="translate(0,0)"/>
<path d="" fill="#000000" transform="translate(0,0)"/>
<path d="" fill="#0C0D0E" transform="translate(0,0)"/>
<path d="" fill="#050403" transform="translate(0,0)"/>
<path d="" fill="#000000" transform="translate(0,0)"/>
<path d="" fill="#000000" transform="translate(0,0)"/>
<path d="" fill="#000000" transform="translate(0,0)"/>
<path d="" fill="#000000" transform="translate(0,0)"/>
<path d="" fill="#000000" transform="translate(0,0)"/>
<path d="" fill="#000002" transform="translate(0,0)"/>
<path d="" fill="#030302" transform="translate(0,0)"/>
<path d="" fill="#020000" transform="translate(0,0)"/>
<path d="" fill="#000000" transform="translate(0,0)"/>
<path d="" fill="#000000" transform="translate(0,0)"/>
<path d="" fill="#000000" transform="translate(0,0)"/>
<path d="" fill="#000000" transform="translate(0,0)"/>
<path d="" fill="#020202" transform="translate(0,0)"/>
<path d="" fill="#0C0A0A" transform="translate(0,0)"/>
<path d="" fill="#000000" transform="translate(0,0)"/>
<path d="" fill="#000000" transform="translate(0,0)"/>
<path d="" fill="#000000" transform="translate(0,0)"/>
<path d="" fill="#000000" transform="translate(0,0)"/>
<path d="" fill="#060605" transform="translate(0,0)"/>
<path d="" fill="#030202" transform="translate(0,0)"/>
<path d="" fill="#000102" transform="translate(0,0)"/>
<path d="" fill="#000000" transform="translate(0,0)"/>
<path d="" fill="#030304" transform="translate(0,0)"/>
<path d="" fill="#110E10" transform="translate(0,0)"/>
<path d="" fill="#000000" transform="translate(0,0)"/>
<path d="" fill="#000000" transform="translate(0,0)"/>
<path d="" fill="#000000" transform="translate(0,0)"/>
<path d="" fill="#000000" transform="translate(0,0)"/>
<path d="" fill="#000000" transform="translate(0,0)"/>
<path d="" fill="#000000" transform="translate(0,0)"/>
<path d="" fill="#000000" transform="translate(0,0)"/>
<path d="" fill="#5B5854" transform="translate(0,0)"/>
<path d="" fill="#000000" transform="translate(0,0)"/>
<path d="" fill="#000000" transform="translate(0,0)"/>
<path d="" fill="#000000" transform="translate(0,0)"/>
<path d="" fill="#000000" transform="translate(0,0)"/>
<path d="" fill="#000000" transform="translate(0,0)"/>
<path d="" fill="#5D5B57" transform="translate(0,0)"/>
<path d="" fill="#000202" transform="translate(0,0)"/>
<path d="" fill="#000000" transform="translate(0,0)"/>
<path d="" fill="#000000" transform="translate(0,0)"/>
<path d="" fill="#000000" transform="translate(0,0)"/>
<path d="" fill="#000000" transform="translate(0,0)"/>
<path d="" fill="#000000" transform="translate(0,0)"/>
<path d="" fill="#5A5956" transform="translate(0,0)"/>
<path d="" fill="#000100" transform="translate(0,0)"/>
<path d="" fill="#000000" transform="translate(0,0)"/>
<path d="" fill="#000000" transform="translate(0,0)"/>
<path d="" fill="#000000" transform="translate(0,0)"/>
<path d="" fill="#000000" transform="translate(0,0)"/>
<path d="" fill="#000000" transform="translate(0,0)"/>
<path d="" fill="#000000" transform="translate(0,0)"/>
<path d="" fill="#000000" transform="translate(0,0)"/>
<path d="" fill="#000000" transform="translate(0,0)"/>
<path d="" fill="#000000" transform="translate(0,0)"/>
<path d="" fill="#000000" transform="translate(0,0)"/>
<path d="" fill="#000000" transform="translate(0,0)"/>
<path d="" fill="#000000" transform="translate(0,0)"/>
<path d="" fill="#000000" transform="translate(0,0)"/>
<path d="" fill="#000000" transform="translate(0,0)"/>
<path d="" fill="#060706" transform="translate(0,0)"/>
<path d="" fill="#000000" transform="translate(0,0)"/>
<path d="" fill="#000000" transform="translate(0,0)"/>
<path d="" fill="#000000" transform="translate(0,0)"/>
<path d="" fill="#000000" transform="translate(0,0)"/>
<path d="" fill="#000000" transform="translate(0,0)"/>
<path d="" fill="#000000" transform="translate(0,0)"/>
<path d="" fill="#000000" transform="translate(0,0)"/>
<path d="" fill="#201F1F" transform="translate(0,0)"/>
<path d="" fill="#070504" transform="translate(0,0)"/>
<path d="" fill="#0A0A0B" transform="translate(0,0)"/>
<path d="" fill="#020101" transform="translate(0,0)"/>
<path d="" fill="#0E0C0E" transform="translate(0,0)"/>
<path d="" fill="#040202" transform="translate(0,0)"/>
<path d="" fill="#0B0A0B" transform="translate(0,0)"/>
<path d="" fill="#000000" transform="translate(0,0)"/>
<path d="" fill="#101010" transform="translate(0,0)"/>
<path d="" fill="#070707" transform="translate(0,0)"/>
<path d="" fill="#1C1C1C" transform="translate(0,0)"/>
<path d="" fill="#0F0F0E" transform="translate(0,0)"/>
<path d="" fill="#2B2B29" transform="translate(0,0)"/>
<path d="" fill="#111113" transform="translate(0,0)"/>
<path d="" fill="#20201F" transform="translate(0,0)"/>
<path d="" fill="#131215" transform="translate(0,0)"/>
<path d="" fill="#1E1F1F" transform="translate(0,0)"/>
<path d="" fill="#121213" transform="translate(0,0)"/>
<path d="" fill="#292A29" transform="translate(0,0)"/>
<path d="" fill="#000000" transform="translate(0,0)"/>
<path d="" fill="#181716" transform="translate(0,0)"/>
<path d="" fill="#29292A" transform="translate(0,0)"/>
<path d="" fill="#1B1A1A" transform="translate(0,0)"/>
<path d="" fill="#2D2C2B" transform="translate(0,0)"/>
<path d="" fill="#030101" transform="translate(0,0)"/>
<path d="" fill="#585756" transform="translate(0,0)"/>
<path d="" fill="#171717" transform="translate(0,0)"/>
<path d="" fill="#373634" transform="translate(0,0)"/>
<path d="" fill="#000001" transform="translate(0,0)"/>
<path d="" fill="#545150" transform="translate(0,0)"/>
<path d="" fill="#151615" transform="translate(0,0)"/>
<path d="" fill="#393734" transform="translate(0,0)"/>
<path d="" fill="#000101" transform="translate(0,0)"/>
<path d="" fill="#52504F" transform="translate(0,0)"/>
<path d="" fill="#020100" transform="translate(0,0)"/>
<path d="" fill="#514D4D" transform="translate(0,0)"/>
<path d="" fill="#010100" transform="translate(0,0)"/>
<path d="" fill="#555353" transform="translate(0,0)"/>
<path d="" fill="#010201" transform="translate(0,0)"/>
<path d="" fill="#585654" transform="translate(0,0)"/>
<path d="" fill="#040402" transform="translate(0,0)"/>
<path d="" fill="#53524F" transform="translate(0,0)"/>
<path d="" fill="#030301" transform="translate(0,0)"/>
<path d="" fill="#535250" transform="translate(0,0)"/>
<path d="" fill="#000000" transform="translate(0,0)"/>
<path d="" fill="#4B4949" transform="translate(0,0)"/>
<path d="" fill="#020101" transform="translate(0,0)"/>
<path d="" fill="#3E3C3C" transform="translate(0,0)"/>
<path d="" fill="#010000" transform="translate(0,0)"/>
<path d="" fill="#3F3E3E" transform="translate(0,0)"/>
<path d="" fill="#000000" transform="translate(0,0)"/>
<path d="" fill="#403F3E" transform="translate(0,0)"/>
<path d="" fill="#000000" transform="translate(0,0)"/>
<path d="" fill="#000000" transform="translate(0,0)"/>
<path d="" fill="#000000" transform="translate(0,0)"/>
<path d="" fill="#030303" transform="translate(0,0)"/>
<path d="" fill="#000000" transform="translate(0,0)"/>
<path d="" fill="#000000" transform="translate(0,0)"/>
<path d="" fill="#10100F" transform="translate(0,0)"/>
<path d="" fill="#000000" transform="translate(0,0)"/>
</svg>
